<?xml version="1.0" encoding="UTF-8"?>
<!DOCTYPE svg PUBLIC "-//W3C//DTD SVG 1.1//EN" "http://www.w3.org/Graphics/SVG/1.1/DTD/svg11.dtd">
<!-- Creator: CorelDRAW -->
<svg xmlns="http://www.w3.org/2000/svg" xml:space="preserve" width="6.56049in" height="6.14077in" version="1.1" style="shape-rendering:geometricPrecision; text-rendering:geometricPrecision; image-rendering:optimizeQuality; fill-rule:evenodd; clip-rule:evenodd"
viewBox="0 0 71.38 66.81"
 xmlns:xlink="http://www.w3.org/1999/xlink"
 xmlns:xodm="http://www.corel.com/coreldraw/odm/2003">
 <defs>
  <style type="text/css">
   <![CDATA[
    .fil3 {fill:#00D96D}
    .fil2 {fill:#4D4D4D}
    .fil1 {fill:#78624D}
    .fil0 {fill:#00D96D;fill-rule:nonzero}
   ]]>
  </style>
 </defs>
 <g id="__x0023_Layer_x0020_1">
  <metadata id="CorelCorpID_0Corel-Layer"/>
  <path class="fil0" d="M18.48 40.63l0 -2.55 -9.53 0 0 -7.98c0,-0.02 0.02,-0.06 0.05,-0.11 0.03,-0.05 0.07,-0.08 0.1,-0.08 0.03,-0.02 0.13,-0.05 0.29,-0.1 0.16,-0.04 0.28,-0.07 0.37,-0.1 0.07,-0.04 0.23,-0.09 0.47,-0.13 0.24,-0.04 0.41,-0.07 0.5,-0.1 0.03,0 0.12,-0.01 0.26,-0.02 0.14,-0.01 0.29,-0.03 0.46,-0.05 0.17,-0.02 0.32,-0.04 0.46,-0.06 0.14,-0.02 0.23,-0.04 0.26,-0.06 0.03,0 0.1,-0.03 0.18,-0.08 0.09,-0.05 0.14,-0.09 0.16,-0.11 0.05,-0.02 0.18,-0.05 0.39,-0.1 0.21,-0.04 0.35,-0.07 0.42,-0.1l0 -0.19c0,0 -0.03,-0.01 -0.1,-0.03 -0.07,-0.02 -0.16,-0.04 -0.26,-0.06 -0.1,-0.02 -0.21,-0.04 -0.33,-0.06 -0.11,-0.02 -0.21,-0.03 -0.27,-0.03 -0.1,0 -0.29,-0.01 -0.55,-0.02 -0.26,-0.01 -0.54,-0.02 -0.82,-0.02 -0.29,0 -0.56,0.01 -0.82,0.02 -0.26,0.01 -0.44,0.02 -0.55,0.02 -0.03,-0.02 -0.09,-0.05 -0.17,-0.1 -0.08,-0.04 -0.14,-0.09 -0.17,-0.13 -0.02,0 -0.04,-0.03 -0.08,-0.08 -0.03,-0.05 -0.06,-0.09 -0.08,-0.11 -0.03,-0.04 -0.07,-0.11 -0.1,-0.21 -0.03,-0.1 -0.05,-0.15 -0.05,-0.18l0 -1.61 6.27 -3.91 9.88 0 0 6.6 -9.53 0 0 2.55 4.37 0c0,0.04 0.02,0.13 0.07,0.26 0.04,0.13 0.07,0.21 0.09,0.26 0.02,0 0.05,0.03 0.09,0.08 0.04,0.05 0.07,0.09 0.07,0.11 0.02,0.06 0.04,0.17 0.08,0.32 0.03,0.15 0.07,0.3 0.1,0.46 0.03,0.16 0.07,0.31 0.09,0.46 0.03,0.15 0.04,0.26 0.04,0.32 0.02,-0.06 0.05,-0.17 0.09,-0.32 0.04,-0.15 0.09,-0.31 0.14,-0.48 0.05,-0.17 0.1,-0.33 0.14,-0.48 0.04,-0.15 0.08,-0.24 0.12,-0.29 0.03,-0.11 0.11,-0.23 0.24,-0.38 0.12,-0.15 0.2,-0.22 0.24,-0.22l3.56 0 0 15.76 -3.38 0c-0.02,0 -0.04,-0.02 -0.08,-0.06 -0.03,-0.04 -0.07,-0.09 -0.1,-0.13 -0.02,-0.04 -0.04,-0.11 -0.08,-0.21 -0.03,-0.1 -0.06,-0.16 -0.08,-0.21 0,-0.02 -0.02,-0.18 -0.07,-0.48 -0.04,-0.3 -0.07,-0.53 -0.09,-0.7 0,-0.04 -0.01,-0.13 -0.03,-0.26 -0.02,-0.13 -0.03,-0.27 -0.05,-0.41 -0.02,-0.15 -0.03,-0.29 -0.05,-0.41 -0.02,-0.13 -0.03,-0.22 -0.03,-0.29 -0.02,0.02 -0.05,0.05 -0.09,0.1 -0.04,0.04 -0.07,0.07 -0.07,0.1 -0.02,0.04 -0.05,0.17 -0.09,0.38 -0.04,0.21 -0.07,0.35 -0.07,0.41 -0.02,0.09 -0.03,0.23 -0.05,0.43 -0.02,0.2 -0.03,0.42 -0.05,0.65 -0.02,0.23 -0.03,0.45 -0.05,0.65 -0.02,0.2 -0.03,0.35 -0.03,0.43l-6.28 0c-0.02,0 -0.09,-0.05 -0.21,-0.16 -0.12,-0.11 -0.22,-0.18 -0.29,-0.22 0,-0.02 -0.02,-0.05 -0.07,-0.1 -0.04,-0.04 -0.07,-0.09 -0.09,-0.13 -0.05,-0.09 -0.14,-0.22 -0.26,-0.41 -0.12,-0.19 -0.2,-0.31 -0.24,-0.35 -0.03,-0.06 -0.07,-0.16 -0.12,-0.29 -0.04,-0.13 -0.09,-0.26 -0.14,-0.38 -0.05,-0.13 -0.1,-0.24 -0.14,-0.33 -0.04,-0.1 -0.07,-0.15 -0.07,-0.18 -0.02,-0.11 -0.03,-0.29 -0.05,-0.56 -0.02,-0.27 -0.03,-0.54 -0.05,-0.83 -0.02,-0.29 -0.03,-0.56 -0.04,-0.83 -0.01,-0.27 -0.01,-0.45 -0.01,-0.56 -0.02,0.09 -0.04,0.24 -0.08,0.46 -0.03,0.22 -0.07,0.46 -0.1,0.72 -0.03,0.26 -0.07,0.49 -0.09,0.72 -0.03,0.22 -0.05,0.38 -0.07,0.46l0 2.36 -0.47 0.61 -2.75 0 0 -6.6 9.53 0zm7.91 -22.45l0 -2.91 3.37 -2.1 3.18 0 0 3.06 2.59 0 0 2.84 0.97 0 0 -2.84 2.59 0 0 -3.06 2.52 0 3.84 2.39 0 5.78 -4.19 0 0.31 0.29c0.1,0 0.28,0.01 0.52,0.03 0.24,0.02 0.5,0.04 0.77,0.06 0.27,0.02 0.53,0.04 0.77,0.06 0.24,0.02 0.42,0.04 0.52,0.06 0.1,0 0.23,0.01 0.37,0.03 0.14,0.02 0.28,0.04 0.42,0.06 0.14,0.02 0.26,0.04 0.35,0.06 0.1,0.02 0.14,0.03 0.14,0.03l0 16.14 -2.17 0 0 -0.99 -0.39 0 -0.34 0.99 -3.46 0 0 -10.62 -1.15 0 0 2.74 -4.03 0 0 -2.74 -0.97 0 0 5.3c0,0.04 -0.07,0.11 -0.22,0.21 -0.15,0.1 -0.27,0.16 -0.35,0.21l-0.21 0 -0.26 0c-0.12,-0.04 -0.31,-0.09 -0.55,-0.13 -0.24,-0.04 -0.38,-0.06 -0.42,-0.06 -0.03,-0.02 -0.09,-0.09 -0.17,-0.19 -0.08,-0.11 -0.14,-0.18 -0.17,-0.22 -0.03,-0.06 -0.08,-0.17 -0.14,-0.32 -0.06,-0.15 -0.12,-0.3 -0.18,-0.46 -0.06,-0.16 -0.12,-0.31 -0.18,-0.46 -0.06,-0.15 -0.1,-0.26 -0.12,-0.32 -0.03,0.02 -0.07,0.08 -0.1,0.18 -0.03,0.1 -0.05,0.16 -0.05,0.21 0,0.02 0.02,0.13 0.05,0.33 0.03,0.2 0.07,0.36 0.1,0.46 0,0.04 0.02,0.14 0.07,0.29 0.04,0.15 0.07,0.24 0.09,0.29 0.02,0.04 0.05,0.11 0.09,0.21 0.04,0.1 0.07,0.16 0.07,0.21l0.31 0.38c0,0 0.04,0.01 0.12,0.02 0.08,0.01 0.17,0.03 0.27,0.05 0.1,0.02 0.21,0.04 0.33,0.06 0.11,0.02 0.21,0.04 0.27,0.06 0.02,0 0.08,0.01 0.2,0.03 0.11,0.02 0.23,0.04 0.35,0.06 0.12,0.02 0.24,0.04 0.35,0.06 0.11,0.02 0.19,0.03 0.22,0.03 0.03,0.02 0.07,0.05 0.1,0.1 0.03,0.04 0.05,0.09 0.05,0.13 0,0.02 0,0.1 0.01,0.24 0.01,0.14 0.01,0.24 0.01,0.3 0,0.04 -0,0.09 -0.01,0.13 -0.01,0.04 -0.01,0.09 -0.01,0.13l0 0.16c-0.02,0.04 -0.11,0.09 -0.27,0.13 -0.17,0.04 -0.29,0.07 -0.38,0.1l-0.42 0 -0.39 0c-0.03,-0.02 -0.13,-0.09 -0.29,-0.19 -0.16,-0.11 -0.27,-0.18 -0.34,-0.22 -0.02,-0.02 -0.07,-0.07 -0.14,-0.14 -0.08,-0.07 -0.17,-0.15 -0.26,-0.24 -0.1,-0.09 -0.18,-0.16 -0.26,-0.24 -0.08,-0.07 -0.13,-0.12 -0.14,-0.14 -0.02,-0.02 -0.03,-0.02 -0.05,0 -0.02,0.02 -0.04,0.03 -0.08,0.03 0,0.04 -0.01,0.1 -0.03,0.18 -0.02,0.07 -0.02,0.13 0,0.18 0.02,0.06 0.07,0.2 0.14,0.4 0.08,0.2 0.14,0.34 0.17,0.4 0.03,0.04 0.09,0.11 0.16,0.21 0.07,0.1 0.12,0.15 0.16,0.18 0.02,0 0.17,0.02 0.46,0.06 0.29,0.04 0.52,0.09 0.69,0.13 0.05,0 0.14,0.01 0.26,0.03 0.12,0.02 0.25,0.04 0.38,0.06 0.13,0.02 0.26,0.04 0.38,0.06 0.12,0.02 0.21,0.03 0.26,0.03l0 1.98 -6.47 0 0 -18.7c0,-0.02 0.04,-0.05 0.13,-0.1 0.09,-0.04 0.15,-0.09 0.18,-0.13 0.05,-0.02 0.16,-0.07 0.31,-0.14 0.16,-0.07 0.33,-0.15 0.51,-0.24 0.18,-0.09 0.35,-0.16 0.51,-0.24 0.16,-0.07 0.25,-0.12 0.29,-0.14 0.03,-0.04 0.09,-0.1 0.17,-0.16 0.08,-0.06 0.13,-0.12 0.14,-0.16l-2.25 0zm27.13 15.85l2.2 0 0 -3.83 3.14 0c-0.05,-0.04 -0.18,-0.1 -0.39,-0.18 -0.21,-0.07 -0.35,-0.11 -0.42,-0.11 -0.03,0 -0.11,-0.01 -0.24,-0.03 -0.12,-0.02 -0.26,-0.04 -0.41,-0.06 -0.15,-0.02 -0.28,-0.04 -0.41,-0.06 -0.12,-0.02 -0.2,-0.03 -0.24,-0.03 -0.09,-0.02 -0.19,-0.04 -0.31,-0.05 -0.12,-0.01 -0.24,-0.04 -0.34,-0.08 -0.12,-0.02 -0.25,-0.05 -0.39,-0.1l0 -1.37 -2.2 0 0 5.9zm-4.03 5.33c-0.03,-0.02 -0.11,-0.05 -0.24,-0.1 -0.12,-0.04 -0.21,-0.07 -0.26,-0.1 -0.03,0 -0.12,-0.02 -0.26,-0.06 -0.14,-0.04 -0.29,-0.09 -0.46,-0.13 -0.17,-0.04 -0.32,-0.08 -0.46,-0.11 -0.14,-0.03 -0.23,-0.06 -0.26,-0.08l-0.65 -0.8c-0.03,-0.04 -0.07,-0.11 -0.1,-0.21 -0.03,-0.1 -0.05,-0.15 -0.05,-0.18l0 -15.38 9.41 0 6.27 3.91 0 13.93 -8.98 0 0 7.18 -2.54 0c0,-0.04 0,-0.14 0.01,-0.29 0.01,-0.15 0.01,-0.26 0.01,-0.32 0.02,-0.02 0.05,-0.11 0.1,-0.27 0.05,-0.16 0.08,-0.26 0.08,-0.3l0 -1.12 0 -1.24c0,-0.09 -0.01,-0.26 -0.03,-0.51 -0.02,-0.26 -0.03,-0.52 -0.05,-0.78 -0.02,-0.27 -0.03,-0.52 -0.05,-0.77 -0.02,-0.24 -0.03,-0.41 -0.05,-0.49 0,-0.04 -0.02,-0.17 -0.05,-0.38 -0.03,-0.21 -0.07,-0.35 -0.1,-0.41 0,-0.04 -0.02,-0.11 -0.07,-0.21 -0.04,-0.1 -0.07,-0.15 -0.09,-0.18l0 5.1c0,0.04 -0.02,0.16 -0.05,0.35 -0.03,0.19 -0.07,0.34 -0.1,0.45 -0.02,0.04 -0.04,0.11 -0.08,0.21 -0.03,0.1 -0.06,0.15 -0.08,0.18 -0.05,0.06 -0.12,0.15 -0.21,0.27 -0.09,0.12 -0.17,0.23 -0.26,0.34 -0.09,0.11 -0.17,0.2 -0.24,0.27 -0.07,0.07 -0.1,0.11 -0.1,0.11l-2.75 0 0 -7.08c0,-0.02 0.06,-0.05 0.18,-0.1 0.12,-0.04 0.23,-0.07 0.31,-0.1 0.02,0 0.07,-0.01 0.17,-0.03 0.1,-0.02 0.2,-0.05 0.3,-0.08 0.1,-0.03 0.21,-0.06 0.3,-0.08 0.1,-0.02 0.16,-0.03 0.2,-0.03 0.05,0 0.14,-0.02 0.26,-0.06 0.12,-0.04 0.25,-0.09 0.38,-0.13 0.13,-0.04 0.26,-0.08 0.38,-0.11 0.12,-0.03 0.21,-0.06 0.26,-0.08z"/>
  <path class="fil1" d="M27.33 56.37c0.01,0 0.02,-0.02 0.02,-0.07l0 -0.02c0,-0.02 -0.01,-0.03 -0.02,-0.05 -0.01,0 -0.07,-0.02 -0.16,-0.06 -0.1,-0.04 -0.16,-0.07 -0.2,-0.08 -0.05,-0.02 -0.15,-0.04 -0.3,-0.08 -0.14,-0.04 -0.23,-0.06 -0.28,-0.06l0 -2.49 -3.46 0 0 -4.77 12.2 0 0 4.7 -1.26 0c-0.01,0 -0.04,-0.05 -0.07,-0.16 -0.03,-0.11 -0.05,-0.2 -0.05,-0.28 0,-0.02 0,-0.06 0,-0.13 0,-0.07 0,-0.15 0,-0.23 0,-0.08 0,-0.16 0,-0.23 0,-0.07 0,-0.11 0,-0.13l-0.06 -0.07c-0.04,-0.02 -0.06,-0.04 -0.06,-0.07 -0.01,-0.02 -0.03,-0.06 -0.06,-0.14 -0.03,-0.08 -0.05,-0.12 -0.06,-0.14 -0.03,-0.02 -0.07,-0.04 -0.14,-0.07 -0.07,-0.03 -0.11,-0.05 -0.12,-0.07 -0.01,-0.03 -0.03,-0.08 -0.06,-0.15 -0.03,-0.07 -0.05,-0.12 -0.06,-0.15 -0.01,0 -0.04,-0.02 -0.07,-0.06 -0.03,-0.04 -0.05,-0.07 -0.05,-0.08 -0.01,-0.03 -0.05,-0.1 -0.12,-0.22 -0.07,-0.12 -0.12,-0.18 -0.14,-0.2 -0.03,-0.05 -0.06,-0.1 -0.1,-0.16 -0.04,-0.06 -0.08,-0.12 -0.12,-0.18 -0.05,-0.06 -0.1,-0.14 -0.14,-0.23l-0.12 0c0,0.05 0.02,0.14 0.05,0.29 0.03,0.15 0.06,0.24 0.07,0.29 0.01,0 0.04,0.02 0.07,0.06 0.03,0.04 0.05,0.07 0.05,0.08 0.01,0.02 0.04,0.06 0.07,0.14 0.03,0.08 0.05,0.12 0.05,0.14l0.12 0.14c0.01,0.03 0.02,0.1 0.01,0.22 -0.01,0.12 -0.01,0.19 -0.01,0.22 0.03,0.03 0.09,0.1 0.19,0.22 0.1,0.12 0.17,0.18 0.19,0.2 0.03,0.03 0.05,0.08 0.08,0.15 0.03,0.07 0.04,0.12 0.04,0.15 0.01,0.08 0.03,0.23 0.04,0.46 0.01,0.23 0.02,0.38 0.02,0.46l-1.63 0 0 13.3 -1.06 0c-0.01,-0.08 -0.03,-0.22 -0.06,-0.43 -0.03,-0.21 -0.05,-0.35 -0.08,-0.43 0,-0.03 -0.02,-0.12 -0.05,-0.27 -0.03,-0.15 -0.06,-0.25 -0.07,-0.31 -0.01,-0.06 -0.03,-0.15 -0.06,-0.25 -0.03,-0.11 -0.05,-0.16 -0.06,-0.16l-0.04 -0.02c-0.01,0 -0.02,0 -0.03,0.01 -0.01,0.01 -0.02,0.01 -0.03,0.01l-0.02 0c-0.01,0 -0.04,0.02 -0.07,0.06 -0.03,0.04 -0.05,0.07 -0.05,0.08 0,0.05 -0.01,0.12 -0.02,0.23 -0.01,0.11 -0.03,0.22 -0.04,0.33 -0.01,0.12 -0.03,0.23 -0.04,0.33 -0.01,0.11 -0.02,0.18 -0.02,0.23 0,0.03 -0.02,0.08 -0.05,0.15 -0.03,0.07 -0.06,0.12 -0.09,0.15 0,0.02 -0.02,0.04 -0.05,0.07 -0.03,0.03 -0.06,0.05 -0.07,0.07 -0.03,0.03 -0.07,0.06 -0.13,0.09 -0.06,0.03 -0.1,0.05 -0.11,0.05l-2.89 0 0 -9.96c0,-0.03 0.03,-0.08 0.09,-0.15 0.06,-0.07 0.11,-0.11 0.15,-0.13 0.05,-0.03 0.16,-0.07 0.32,-0.1 0.16,-0.04 0.26,-0.06 0.32,-0.06z"/>
  <path class="fil1" d="M41.77 57.53l1.65 0 0 -4.56 -1.65 0 0 4.56zm3.4 -8.83c0.03,0.05 0.08,0.1 0.17,0.17 0.09,0.07 0.15,0.1 0.19,0.1 0.05,0 0.15,-0.03 0.28,-0.1 0.13,-0.07 0.21,-0.13 0.23,-0.17l2.65 0 0 14.15c-0.03,0 -0.09,-0.01 -0.19,-0.02 -0.1,-0.02 -0.17,-0.03 -0.19,-0.05 -0.03,0 -0.11,-0.05 -0.24,-0.14 -0.14,-0.09 -0.22,-0.14 -0.24,-0.14 -0.04,0 -0.12,-0.01 -0.24,-0.02 -0.12,-0.02 -0.25,-0.03 -0.4,-0.05 -0.14,-0.02 -0.29,-0.03 -0.43,-0.05 -0.14,-0.02 -0.25,-0.02 -0.32,-0.02 -0.01,0 -0.06,0 -0.13,0 -0.07,0 -0.16,-0 -0.24,-0.01 -0.09,-0.01 -0.18,-0.01 -0.26,-0.01 -0.09,0 -0.16,0 -0.21,0 -0.05,0 -0.13,0 -0.21,0 -0.09,0 -0.17,0 -0.25,0.01 -0.08,0.01 -0.15,0.01 -0.21,0.01 -0.06,0 -0.1,0 -0.11,0 -0.01,0 -0.07,0.02 -0.16,0.05 -0.1,0.03 -0.16,0.06 -0.2,0.09 -0.04,0.03 -0.13,0.08 -0.26,0.14 -0.14,0.06 -0.22,0.11 -0.24,0.14l-0.12 0.14c-0.01,0.03 -0.02,0.05 -0.02,0.07l0 0.09c0,0.02 0,0.04 0.01,0.07 0.01,0.03 0.01,0.05 0.01,0.07 0.01,-0.03 0.03,-0.06 0.06,-0.09 0.03,-0.03 0.05,-0.05 0.06,-0.05 0.03,-0.03 0.07,-0.06 0.13,-0.09 0.06,-0.03 0.11,-0.05 0.13,-0.07 0.04,-0.03 0.13,-0.06 0.25,-0.09 0.13,-0.03 0.21,-0.05 0.23,-0.05l0.75 0 0.75 0c0.01,0 0.05,0 0.12,0.01 0.07,0.01 0.14,0.02 0.22,0.03 0.08,0.02 0.16,0.03 0.23,0.05 0.07,0.02 0.13,0.03 0.17,0.05 0.03,0.02 0.09,0.04 0.19,0.07 0.1,0.03 0.17,0.06 0.19,0.09 0.03,0.02 0.09,0.06 0.19,0.14 0.1,0.08 0.16,0.12 0.17,0.14 0.03,0.02 0.11,0.04 0.25,0.07 0.14,0.03 0.23,0.05 0.25,0.07 0.03,0.03 0.07,0.06 0.13,0.08 0.06,0.02 0.12,0.05 0.17,0.08 0.05,0.05 0.12,0.08 0.2,0.12l0 3 -5.22 0 0 -4.84 -1.77 0 0 4.89c-0.05,0 -0.14,0 -0.26,0 -0.12,0 -0.25,-0 -0.4,-0.01 -0.14,-0.01 -0.28,-0.02 -0.4,-0.02 -0.12,-0.01 -0.21,-0.01 -0.26,-0.01 -0.07,-0.02 -0.2,-0.04 -0.39,-0.07 -0.19,-0.03 -0.31,-0.05 -0.37,-0.07 -0.03,-0.02 -0.11,-0.07 -0.24,-0.16 -0.14,-0.09 -0.22,-0.14 -0.24,-0.14 -0.07,0.02 -0.16,0.08 -0.29,0.18 -0.12,0.11 -0.2,0.19 -0.22,0.25l-2.14 0 0 -18.07 8.68 0z"/>
  <path class="fil1" d="M54.61 56.37c0.01,0 0.02,-0.02 0.02,-0.07l0 -0.02c0,-0.02 -0.01,-0.03 -0.02,-0.05 -0.01,0 -0.07,-0.02 -0.16,-0.06 -0.1,-0.04 -0.16,-0.07 -0.2,-0.08 -0.05,-0.02 -0.15,-0.04 -0.3,-0.08 -0.14,-0.04 -0.23,-0.06 -0.28,-0.06l0 -2.49 -3.46 0 0 -4.77 12.2 0 0 4.7 -1.26 0c-0.01,0 -0.04,-0.05 -0.07,-0.16 -0.03,-0.11 -0.05,-0.2 -0.05,-0.28 0,-0.02 0,-0.06 0,-0.13 0,-0.07 0,-0.15 0,-0.23 0,-0.08 0,-0.16 0,-0.23 0,-0.07 0,-0.11 0,-0.13l-0.06 -0.07c-0.04,-0.02 -0.06,-0.04 -0.06,-0.07 -0.01,-0.02 -0.03,-0.06 -0.06,-0.14 -0.03,-0.08 -0.05,-0.12 -0.06,-0.14 -0.03,-0.02 -0.07,-0.04 -0.14,-0.07 -0.07,-0.03 -0.11,-0.05 -0.12,-0.07 -0.01,-0.03 -0.03,-0.08 -0.06,-0.15 -0.03,-0.07 -0.05,-0.12 -0.06,-0.15 -0.01,0 -0.04,-0.02 -0.07,-0.06 -0.03,-0.04 -0.05,-0.07 -0.05,-0.08 -0.01,-0.03 -0.05,-0.1 -0.12,-0.22 -0.07,-0.12 -0.12,-0.18 -0.14,-0.2 -0.03,-0.05 -0.06,-0.1 -0.1,-0.16 -0.04,-0.06 -0.08,-0.12 -0.12,-0.18 -0.05,-0.06 -0.1,-0.14 -0.14,-0.23l-0.12 0c0,0.05 0.02,0.14 0.05,0.29 0.03,0.15 0.06,0.24 0.07,0.29 0.01,0 0.04,0.02 0.07,0.06 0.03,0.04 0.05,0.07 0.05,0.08 0.01,0.02 0.04,0.06 0.07,0.14 0.03,0.08 0.05,0.12 0.05,0.14l0.12 0.14c0.01,0.03 0.02,0.1 0.01,0.22 -0.01,0.12 -0.01,0.19 -0.01,0.22 0.03,0.03 0.09,0.1 0.19,0.22 0.1,0.12 0.17,0.18 0.19,0.2 0.03,0.03 0.05,0.08 0.08,0.15 0.03,0.07 0.04,0.12 0.04,0.15 0.01,0.08 0.03,0.23 0.04,0.46 0.01,0.23 0.02,0.38 0.02,0.46l-1.63 0 0 13.3 -1.06 0c-0.01,-0.08 -0.03,-0.22 -0.06,-0.43 -0.03,-0.21 -0.05,-0.35 -0.08,-0.43 0,-0.03 -0.02,-0.12 -0.05,-0.27 -0.03,-0.15 -0.06,-0.25 -0.07,-0.31 -0.01,-0.06 -0.03,-0.15 -0.06,-0.25 -0.03,-0.11 -0.05,-0.16 -0.06,-0.16l-0.04 -0.02c-0.01,0 -0.02,0 -0.03,0.01 -0.01,0.01 -0.02,0.01 -0.03,0.01l-0.02 0c-0.01,0 -0.04,0.02 -0.07,0.06 -0.03,0.04 -0.05,0.07 -0.05,0.08 0,0.05 -0.01,0.12 -0.02,0.23 -0.01,0.11 -0.03,0.22 -0.04,0.33 -0.01,0.12 -0.03,0.23 -0.04,0.33 -0.01,0.11 -0.02,0.18 -0.02,0.23 0,0.03 -0.02,0.08 -0.05,0.15 -0.03,0.07 -0.06,0.12 -0.09,0.15 0,0.02 -0.02,0.04 -0.05,0.07 -0.03,0.03 -0.06,0.05 -0.07,0.07 -0.03,0.03 -0.07,0.06 -0.13,0.09 -0.06,0.03 -0.1,0.05 -0.11,0.05l-2.89 0 0 -9.96c0,-0.03 0.03,-0.08 0.09,-0.15 0.06,-0.07 0.11,-0.11 0.15,-0.13 0.05,-0.03 0.16,-0.07 0.32,-0.1 0.16,-0.04 0.26,-0.06 0.32,-0.06z"/>
  <path class="fil1" d="M16.39 62l0 -1.84 -7.42 0 0 -5.76c0,-0.02 0.01,-0.04 0.04,-0.08 0.03,-0.04 0.05,-0.06 0.08,-0.06 0.03,-0.02 0.1,-0.04 0.22,-0.07 0.12,-0.03 0.22,-0.05 0.29,-0.07 0.05,-0.03 0.18,-0.06 0.37,-0.09 0.19,-0.03 0.32,-0.05 0.39,-0.07 0.03,0 0.1,-0 0.2,-0.01 0.11,-0.01 0.23,-0.02 0.36,-0.03 0.13,-0.02 0.25,-0.03 0.36,-0.05 0.11,-0.02 0.18,-0.03 0.2,-0.05 0.03,0 0.07,-0.02 0.14,-0.06 0.07,-0.04 0.11,-0.07 0.12,-0.08 0.04,-0.02 0.14,-0.04 0.31,-0.07 0.16,-0.03 0.27,-0.05 0.33,-0.07l0 -0.14c0,0 -0.03,-0.01 -0.08,-0.02 -0.05,-0.02 -0.12,-0.03 -0.2,-0.05 -0.08,-0.02 -0.17,-0.03 -0.25,-0.05 -0.09,-0.02 -0.16,-0.02 -0.21,-0.02 -0.08,0 -0.22,-0 -0.43,-0.01 -0.2,-0.01 -0.42,-0.01 -0.64,-0.01 -0.22,0 -0.44,0 -0.64,0.01 -0.2,0.01 -0.35,0.01 -0.43,0.01 -0.03,-0.02 -0.07,-0.04 -0.13,-0.07 -0.06,-0.03 -0.11,-0.06 -0.13,-0.09 -0.01,0 -0.03,-0.02 -0.06,-0.06 -0.03,-0.04 -0.05,-0.07 -0.06,-0.08 -0.03,-0.03 -0.05,-0.08 -0.08,-0.15 -0.03,-0.07 -0.04,-0.11 -0.04,-0.13l0 -3.99 12.57 0 0 4.77 -7.42 0 0 1.84 3.4 0c0,0.03 0.02,0.09 0.05,0.18 0.03,0.09 0.06,0.15 0.07,0.18 0.01,0 0.04,0.02 0.07,0.06 0.03,0.04 0.05,0.07 0.05,0.08 0.01,0.05 0.03,0.12 0.06,0.23 0.03,0.11 0.05,0.22 0.08,0.33 0.03,0.12 0.05,0.23 0.07,0.33 0.02,0.11 0.03,0.18 0.03,0.23 0.01,-0.05 0.04,-0.12 0.07,-0.23 0.03,-0.11 0.07,-0.22 0.11,-0.35 0.04,-0.12 0.08,-0.24 0.11,-0.35 0.03,-0.11 0.06,-0.18 0.09,-0.21 0.03,-0.08 0.09,-0.17 0.18,-0.28 0.1,-0.11 0.16,-0.16 0.18,-0.16l2.77 0 0 11.38 -2.63 0c-0.01,0 -0.03,-0.02 -0.06,-0.05 -0.03,-0.03 -0.05,-0.06 -0.08,-0.09 -0.01,-0.03 -0.03,-0.08 -0.06,-0.15 -0.03,-0.07 -0.05,-0.12 -0.06,-0.15 0,-0.02 -0.02,-0.13 -0.05,-0.35 -0.03,-0.22 -0.06,-0.38 -0.07,-0.51 0,-0.03 -0.01,-0.09 -0.02,-0.18 -0.01,-0.09 -0.03,-0.19 -0.04,-0.3 -0.01,-0.11 -0.03,-0.21 -0.04,-0.3 -0.01,-0.09 -0.02,-0.16 -0.02,-0.21 -0.01,0.02 -0.04,0.04 -0.07,0.07 -0.03,0.03 -0.05,0.05 -0.05,0.07 -0.01,0.03 -0.04,0.12 -0.07,0.28 -0.03,0.15 -0.05,0.25 -0.05,0.3 -0.01,0.06 -0.03,0.17 -0.04,0.31 -0.01,0.15 -0.03,0.3 -0.04,0.47 -0.01,0.17 -0.03,0.33 -0.04,0.47 -0.01,0.15 -0.02,0.25 -0.02,0.31l-4.89 0c-0.01,0 -0.07,-0.04 -0.16,-0.12 -0.1,-0.08 -0.17,-0.13 -0.22,-0.16 0,-0.02 -0.02,-0.04 -0.05,-0.07 -0.03,-0.03 -0.06,-0.06 -0.07,-0.09 -0.04,-0.06 -0.11,-0.16 -0.2,-0.3 -0.1,-0.14 -0.16,-0.22 -0.18,-0.25 -0.03,-0.05 -0.06,-0.12 -0.09,-0.21 -0.03,-0.09 -0.07,-0.18 -0.11,-0.28 -0.04,-0.09 -0.08,-0.17 -0.11,-0.24 -0.03,-0.07 -0.05,-0.11 -0.05,-0.13 -0.01,-0.08 -0.03,-0.21 -0.04,-0.4 -0.01,-0.19 -0.03,-0.39 -0.04,-0.6 -0.01,-0.21 -0.02,-0.41 -0.03,-0.6 -0.01,-0.19 -0.01,-0.33 -0.01,-0.4 -0.01,0.06 -0.03,0.17 -0.06,0.33 -0.03,0.16 -0.05,0.33 -0.08,0.52 -0.03,0.18 -0.05,0.36 -0.07,0.52 -0.02,0.16 -0.04,0.27 -0.05,0.33l0 1.71 -0.13 0.16 -2.37 -1.48 0 -3.01 7.42 0z"/>
  <path class="fil2" d="M71.37 23.7l0.01 35.37c0,0.38 -0.18,0.71 -0.5,0.91l-5.44 3.39c-0.34,0.21 -0.74,0.22 -1.09,0.03 -0.35,-0.19 -0.55,-0.54 -0.55,-0.94l-0 -37.23 -28.11 -17.5 -28.12 17.51 0.01 37.22c0,0.4 -0.2,0.74 -0.55,0.94 -0.35,0.19 -0.75,0.18 -1.09,-0.03l-5.43 -3.38c-0.32,-0.2 -0.5,-0.53 -0.5,-0.91l0.01 -35.24c-0.04,-1.56 0.3,-2.37 1.54,-3.17l30.51 -19.7c1.12,-0.7 2.51,-1 3.82,-0.95 1.26,0.05 2.56,0.41 3.64,1.08l30.36 19.66c1.15,0.74 1.45,1.53 1.49,2.95z"/>
  <g id="_1634082825920">
   <polygon class="fil1" points="45.45,43.25 45.45,47.23 26.4,47.23 26.4,41.42 30.21,41.42 30.21,43.25 34.02,43.25 34.02,45.08 37.83,45.08 37.83,43.25 37.83,41.42 41.64,41.42 41.64,43.25 "/>
   <polygon class="fil3" points="26.4,39.59 30.21,39.59 34.02,39.59 37.83,39.59 41.64,39.59 45.45,39.59 45.45,41.42 45.45,43.25 41.64,43.25 41.64,41.42 37.83,41.42 37.83,43.25 37.83,45.08 34.02,45.08 34.02,43.25 30.21,43.25 30.21,41.42 26.4,41.42 "/>
  </g>
 </g>
</svg>
