<?xml version="1.0" encoding="UTF-8"?>
<!DOCTYPE svg PUBLIC "-//W3C//DTD SVG 1.1//EN" "http://www.w3.org/Graphics/SVG/1.1/DTD/svg11.dtd">
<!-- Creator: CorelDRAW -->
<svg xmlns="http://www.w3.org/2000/svg" xml:space="preserve" width="6.56049in" height="6.14077in" version="1.1" style="shape-rendering:geometricPrecision; text-rendering:geometricPrecision; image-rendering:optimizeQuality; fill-rule:evenodd; clip-rule:evenodd"
viewBox="0 0 79.14 74.08"
 xmlns:xlink="http://www.w3.org/1999/xlink"
 xmlns:xodm="http://www.corel.com/coreldraw/odm/2003">
 <defs>
  <style type="text/css">
   <![CDATA[
    .fil3 {fill:#00D96D}
    .fil2 {fill:#333333}
    .fil1 {fill:#615040}
    .fil0 {fill:#333333;fill-rule:nonzero}
   ]]>
  </style>
 </defs>
 <g id="__x0023_Layer_x0020_1">
  <metadata id="CorelCorpID_0Corel-Layer"/>
  <path class="fil0" d="M20.49 45.05l0 -2.83 -10.56 0 0 -8.84c0,-0.02 0.02,-0.06 0.06,-0.12 0.04,-0.06 0.08,-0.09 0.12,-0.09 0.04,-0.02 0.15,-0.06 0.32,-0.11 0.17,-0.05 0.31,-0.08 0.41,-0.11 0.08,-0.05 0.25,-0.09 0.52,-0.14 0.27,-0.05 0.45,-0.08 0.55,-0.11 0.04,0 0.14,-0.01 0.29,-0.02 0.15,-0.01 0.32,-0.03 0.51,-0.05 0.18,-0.02 0.35,-0.05 0.51,-0.07 0.15,-0.02 0.25,-0.05 0.29,-0.07 0.04,0 0.11,-0.03 0.2,-0.09 0.1,-0.06 0.15,-0.1 0.17,-0.12 0.06,-0.02 0.2,-0.06 0.44,-0.11 0.23,-0.05 0.39,-0.08 0.46,-0.11l0 -0.21c0,0 -0.04,-0.01 -0.12,-0.04 -0.08,-0.02 -0.17,-0.05 -0.29,-0.07 -0.12,-0.02 -0.24,-0.05 -0.36,-0.07 -0.13,-0.02 -0.23,-0.04 -0.3,-0.04 -0.12,0 -0.32,-0.01 -0.61,-0.02 -0.29,-0.01 -0.59,-0.02 -0.91,-0.02 -0.32,0 -0.62,0.01 -0.91,0.02 -0.29,0.01 -0.49,0.02 -0.61,0.02 -0.04,-0.02 -0.1,-0.06 -0.19,-0.11 -0.09,-0.05 -0.15,-0.09 -0.19,-0.14 -0.02,0 -0.05,-0.03 -0.09,-0.09 -0.04,-0.06 -0.07,-0.1 -0.09,-0.12 -0.04,-0.05 -0.08,-0.12 -0.12,-0.23 -0.04,-0.11 -0.06,-0.17 -0.06,-0.19l0 -1.79 6.96 -4.33 10.95 0 0 7.32 -10.56 0 0 2.83 4.85 0c0,0.05 0.02,0.14 0.07,0.28 0.05,0.14 0.08,0.24 0.1,0.28 0.02,0 0.05,0.03 0.1,0.09 0.05,0.06 0.07,0.1 0.07,0.12 0.02,0.07 0.05,0.19 0.09,0.35 0.04,0.17 0.08,0.34 0.12,0.51 0.04,0.18 0.07,0.35 0.1,0.51 0.03,0.17 0.04,0.28 0.04,0.35 0.02,-0.07 0.05,-0.19 0.1,-0.35 0.05,-0.17 0.1,-0.34 0.16,-0.53 0.06,-0.19 0.11,-0.37 0.16,-0.53 0.05,-0.17 0.09,-0.27 0.13,-0.32 0.04,-0.12 0.13,-0.26 0.26,-0.42 0.14,-0.17 0.22,-0.25 0.26,-0.25l3.95 0 0 17.47 -3.74 0c-0.02,0 -0.05,-0.02 -0.09,-0.07 -0.04,-0.05 -0.08,-0.09 -0.12,-0.14 -0.02,-0.05 -0.05,-0.12 -0.09,-0.23 -0.04,-0.11 -0.07,-0.18 -0.09,-0.23 0,-0.02 -0.02,-0.2 -0.07,-0.53 -0.05,-0.33 -0.08,-0.59 -0.1,-0.78 0,-0.05 -0.01,-0.14 -0.03,-0.28 -0.02,-0.14 -0.04,-0.29 -0.06,-0.46 -0.02,-0.17 -0.04,-0.32 -0.06,-0.46 -0.02,-0.14 -0.03,-0.25 -0.03,-0.32 -0.02,0.02 -0.05,0.06 -0.1,0.11 -0.05,0.05 -0.07,0.08 -0.07,0.11 -0.02,0.05 -0.05,0.19 -0.1,0.42 -0.05,0.24 -0.07,0.39 -0.07,0.46 -0.02,0.09 -0.04,0.25 -0.06,0.48 -0.02,0.22 -0.04,0.47 -0.06,0.73 -0.02,0.26 -0.04,0.5 -0.06,0.73 -0.02,0.22 -0.03,0.38 -0.03,0.48l-6.97 0c-0.02,0 -0.1,-0.06 -0.23,-0.18 -0.14,-0.12 -0.24,-0.2 -0.32,-0.25 0,-0.02 -0.02,-0.06 -0.07,-0.11 -0.05,-0.05 -0.08,-0.09 -0.1,-0.14 -0.06,-0.09 -0.15,-0.25 -0.29,-0.46 -0.14,-0.21 -0.22,-0.34 -0.26,-0.39 -0.04,-0.07 -0.08,-0.18 -0.13,-0.32 -0.05,-0.14 -0.1,-0.28 -0.16,-0.42 -0.06,-0.14 -0.11,-0.27 -0.16,-0.37 -0.05,-0.11 -0.07,-0.17 -0.07,-0.19 -0.02,-0.12 -0.04,-0.32 -0.06,-0.62 -0.02,-0.29 -0.04,-0.6 -0.06,-0.92 -0.02,-0.32 -0.03,-0.62 -0.04,-0.92 -0.01,-0.29 -0.01,-0.5 -0.01,-0.62 -0.02,0.09 -0.05,0.27 -0.09,0.51 -0.04,0.25 -0.08,0.51 -0.12,0.8 -0.04,0.28 -0.07,0.55 -0.1,0.8 -0.03,0.25 -0.05,0.42 -0.07,0.51l0 2.62 -0.52 0.67 -3.05 0 0 -7.32 10.56 0zm8.77 -24.89l0 -3.23 3.73 -2.32 3.52 0 0 3.4 2.87 0 0 3.15 1.07 0 0 -3.15 2.87 0 0 -3.4 2.8 0 4.26 2.65 0 6.41 -4.64 0 0.35 0.32c0.12,0 0.31,0.01 0.58,0.04 0.27,0.02 0.56,0.05 0.86,0.07 0.3,0.02 0.59,0.05 0.86,0.07 0.27,0.02 0.46,0.05 0.58,0.07 0.12,0 0.25,0.01 0.41,0.04 0.15,0.02 0.31,0.05 0.46,0.07 0.15,0.02 0.29,0.05 0.39,0.07 0.11,0.02 0.16,0.04 0.16,0.04l0 17.9 -2.41 0 0 -1.1 -0.44 0 -0.38 1.1 -3.83 0 0 -11.78 -1.28 0 0 3.04 -4.47 0 0 -3.04 -1.07 0 0 5.87c0,0.05 -0.08,0.12 -0.25,0.23 -0.16,0.11 -0.3,0.18 -0.39,0.23l-0.23 0 -0.29 0c-0.14,-0.05 -0.34,-0.09 -0.61,-0.14 -0.27,-0.05 -0.43,-0.07 -0.46,-0.07 -0.04,-0.02 -0.1,-0.09 -0.19,-0.21 -0.09,-0.12 -0.15,-0.2 -0.19,-0.25 -0.04,-0.07 -0.09,-0.19 -0.16,-0.35 -0.07,-0.17 -0.14,-0.34 -0.2,-0.51 -0.07,-0.18 -0.14,-0.35 -0.2,-0.51 -0.07,-0.17 -0.11,-0.28 -0.13,-0.35 -0.04,0.02 -0.08,0.09 -0.12,0.19 -0.04,0.11 -0.06,0.18 -0.06,0.23 0,0.02 0.02,0.15 0.06,0.37 0.04,0.22 0.08,0.4 0.12,0.51 0,0.05 0.02,0.15 0.07,0.32 0.05,0.17 0.08,0.27 0.1,0.32 0.02,0.05 0.05,0.12 0.1,0.23 0.05,0.11 0.07,0.18 0.07,0.23l0.35 0.42c0,0 0.04,0.01 0.13,0.02 0.09,0.01 0.19,0.03 0.3,0.05 0.12,0.02 0.24,0.05 0.36,0.07 0.13,0.02 0.23,0.05 0.3,0.07 0.02,0 0.09,0.01 0.22,0.04 0.13,0.02 0.26,0.05 0.39,0.07 0.14,0.02 0.27,0.05 0.39,0.07 0.13,0.02 0.21,0.04 0.25,0.04 0.04,0.02 0.08,0.06 0.12,0.11 0.04,0.05 0.06,0.09 0.06,0.14 0,0.02 0,0.11 0.01,0.27 0.01,0.15 0.01,0.27 0.01,0.34 0,0.05 -0,0.09 -0.01,0.14 -0.01,0.05 -0.01,0.09 -0.01,0.14l0 0.18c-0.02,0.05 -0.12,0.09 -0.3,0.14 -0.18,0.05 -0.32,0.08 -0.42,0.11l-0.46 0 -0.44 0c-0.04,-0.02 -0.15,-0.09 -0.32,-0.21 -0.17,-0.12 -0.3,-0.2 -0.38,-0.25 -0.02,-0.02 -0.07,-0.08 -0.16,-0.16 -0.09,-0.08 -0.18,-0.17 -0.29,-0.27 -0.11,-0.09 -0.2,-0.18 -0.29,-0.27 -0.09,-0.08 -0.14,-0.14 -0.16,-0.16 -0.02,-0.02 -0.04,-0.02 -0.06,0 -0.02,0.02 -0.05,0.04 -0.09,0.04 0,0.05 -0.01,0.11 -0.03,0.19 -0.02,0.08 -0.02,0.15 0,0.19 0.02,0.07 0.07,0.22 0.16,0.44 0.09,0.22 0.15,0.37 0.19,0.44 0.04,0.05 0.1,0.12 0.17,0.23 0.08,0.11 0.14,0.17 0.17,0.19 0.02,0 0.19,0.02 0.51,0.07 0.32,0.05 0.58,0.09 0.77,0.14 0.06,0 0.15,0.01 0.29,0.04 0.14,0.02 0.28,0.05 0.42,0.07 0.15,0.02 0.29,0.05 0.42,0.07 0.14,0.02 0.23,0.04 0.29,0.04l0 2.19 -7.17 0 0 -20.73c0,-0.02 0.05,-0.06 0.15,-0.11 0.1,-0.05 0.16,-0.09 0.2,-0.14 0.06,-0.02 0.17,-0.08 0.35,-0.16 0.17,-0.08 0.36,-0.17 0.57,-0.27 0.2,-0.09 0.39,-0.18 0.57,-0.27 0.17,-0.08 0.28,-0.14 0.32,-0.16 0.04,-0.05 0.1,-0.11 0.19,-0.18 0.09,-0.07 0.14,-0.13 0.16,-0.18l-2.5 0zm30.08 17.57l2.44 0 0 -4.24 3.48 0c-0.06,-0.05 -0.2,-0.11 -0.44,-0.19 -0.23,-0.08 -0.39,-0.12 -0.46,-0.12 -0.04,0 -0.13,-0.01 -0.26,-0.04 -0.14,-0.02 -0.29,-0.05 -0.45,-0.07 -0.16,-0.02 -0.31,-0.05 -0.45,-0.07 -0.14,-0.02 -0.22,-0.04 -0.26,-0.04 -0.1,-0.02 -0.21,-0.04 -0.35,-0.05 -0.14,-0.01 -0.26,-0.04 -0.38,-0.09 -0.14,-0.02 -0.28,-0.06 -0.44,-0.11l0 -1.52 -2.44 0 0 6.54zm-4.47 5.91c-0.04,-0.02 -0.13,-0.06 -0.26,-0.11 -0.14,-0.05 -0.23,-0.08 -0.29,-0.11 -0.04,0 -0.14,-0.02 -0.29,-0.07 -0.15,-0.05 -0.32,-0.09 -0.51,-0.14 -0.18,-0.05 -0.35,-0.09 -0.51,-0.12 -0.15,-0.04 -0.25,-0.06 -0.29,-0.09l-0.73 -0.88c-0.04,-0.05 -0.08,-0.12 -0.12,-0.23 -0.04,-0.11 -0.06,-0.17 -0.06,-0.19l0 -17.05 10.43 0 6.96 4.33 0 15.44 -9.95 0 0 7.96 -2.82 0c0,-0.05 0,-0.15 0.01,-0.32 0.01,-0.17 0.01,-0.28 0.01,-0.35 0.02,-0.02 0.06,-0.12 0.12,-0.3 0.06,-0.18 0.09,-0.29 0.09,-0.34l0 -1.24 0 -1.38c0,-0.09 -0.01,-0.28 -0.03,-0.57 -0.02,-0.28 -0.04,-0.57 -0.06,-0.87 -0.02,-0.29 -0.04,-0.58 -0.06,-0.85 -0.02,-0.27 -0.04,-0.45 -0.06,-0.55 0,-0.05 -0.02,-0.19 -0.06,-0.42 -0.04,-0.24 -0.08,-0.39 -0.12,-0.46 0,-0.05 -0.02,-0.12 -0.07,-0.23 -0.05,-0.11 -0.08,-0.17 -0.1,-0.19l0 5.66c0,0.05 -0.02,0.18 -0.06,0.39 -0.04,0.21 -0.08,0.38 -0.12,0.5 -0.02,0.05 -0.05,0.12 -0.09,0.23 -0.04,0.11 -0.07,0.17 -0.09,0.19 -0.06,0.07 -0.14,0.17 -0.23,0.3 -0.1,0.13 -0.19,0.25 -0.29,0.37 -0.1,0.12 -0.18,0.22 -0.26,0.3 -0.08,0.08 -0.12,0.12 -0.12,0.12l-3.05 0 0 -7.85c0,-0.02 0.07,-0.06 0.2,-0.11 0.14,-0.05 0.25,-0.08 0.35,-0.11 0.02,0 0.08,-0.01 0.19,-0.04 0.11,-0.02 0.22,-0.05 0.33,-0.09 0.12,-0.04 0.23,-0.06 0.33,-0.09 0.11,-0.02 0.18,-0.04 0.22,-0.04 0.06,0 0.15,-0.02 0.29,-0.07 0.14,-0.05 0.28,-0.09 0.42,-0.14 0.15,-0.05 0.29,-0.09 0.42,-0.12 0.14,-0.04 0.23,-0.06 0.29,-0.09z"/>
  <path class="fil1" d="M30.3 62.5c0.02,0 0.02,-0.03 0.02,-0.08l0 -0.03c0,-0.02 -0.01,-0.03 -0.02,-0.05 -0.02,0 -0.08,-0.02 -0.18,-0.06 -0.11,-0.04 -0.18,-0.07 -0.23,-0.09 -0.06,-0.02 -0.17,-0.05 -0.33,-0.09 -0.16,-0.04 -0.26,-0.06 -0.3,-0.06l0 -2.76 -3.84 0 0 -5.29 13.53 0 0 5.21 -1.4 0c-0.02,0 -0.04,-0.06 -0.08,-0.18 -0.04,-0.12 -0.06,-0.22 -0.06,-0.31 0,-0.02 0,-0.06 0,-0.14 0,-0.08 0,-0.16 0,-0.26 0,-0.09 0,-0.18 0,-0.26 0,-0.08 0,-0.12 0,-0.14l-0.07 -0.08c-0.05,-0.02 -0.07,-0.04 -0.07,-0.08 -0.02,-0.02 -0.04,-0.07 -0.07,-0.15 -0.03,-0.09 -0.05,-0.14 -0.07,-0.15 -0.03,-0.02 -0.08,-0.04 -0.16,-0.08 -0.08,-0.03 -0.12,-0.06 -0.14,-0.08 -0.02,-0.03 -0.04,-0.09 -0.07,-0.17 -0.03,-0.08 -0.05,-0.13 -0.07,-0.17 -0.02,0 -0.04,-0.02 -0.08,-0.06 -0.04,-0.04 -0.06,-0.07 -0.06,-0.09 -0.02,-0.03 -0.06,-0.11 -0.14,-0.24 -0.08,-0.13 -0.13,-0.2 -0.16,-0.22 -0.03,-0.05 -0.07,-0.11 -0.11,-0.18 -0.05,-0.07 -0.09,-0.14 -0.14,-0.2 -0.06,-0.07 -0.11,-0.15 -0.16,-0.26l-0.14 0c0,0.05 0.02,0.16 0.06,0.32 0.04,0.16 0.06,0.27 0.08,0.32 0.02,0 0.04,0.02 0.08,0.06 0.04,0.04 0.06,0.07 0.06,0.09 0.02,0.02 0.04,0.07 0.08,0.15 0.04,0.09 0.06,0.14 0.06,0.15l0.14 0.15c0.02,0.03 0.02,0.11 0.01,0.24 -0.01,0.13 -0.01,0.21 -0.01,0.24 0.03,0.03 0.1,0.11 0.21,0.24 0.11,0.13 0.18,0.2 0.21,0.22 0.03,0.03 0.06,0.09 0.09,0.17 0.03,0.08 0.05,0.13 0.05,0.17 0.02,0.09 0.03,0.26 0.05,0.51 0.02,0.26 0.02,0.43 0.02,0.51l-1.81 0 0 14.74 -1.17 0c-0.02,-0.09 -0.04,-0.24 -0.07,-0.47 -0.03,-0.23 -0.06,-0.39 -0.09,-0.47 0,-0.03 -0.02,-0.13 -0.06,-0.29 -0.04,-0.16 -0.06,-0.28 -0.08,-0.34 -0.02,-0.07 -0.04,-0.16 -0.07,-0.28 -0.03,-0.12 -0.05,-0.18 -0.07,-0.18l-0.05 -0.03c-0.02,0 -0.03,0 -0.03,0.01 -0.01,0.01 -0.02,0.01 -0.03,0.01l-0.02 0c-0.02,0 -0.04,0.02 -0.08,0.06 -0.04,0.04 -0.06,0.07 -0.06,0.09 0,0.05 -0.01,0.14 -0.02,0.26 -0.02,0.12 -0.03,0.24 -0.05,0.37 -0.02,0.13 -0.03,0.25 -0.05,0.37 -0.02,0.12 -0.02,0.2 -0.02,0.26 0,0.03 -0.02,0.09 -0.06,0.17 -0.04,0.08 -0.07,0.13 -0.1,0.17 0,0.02 -0.02,0.04 -0.06,0.08 -0.04,0.03 -0.06,0.06 -0.08,0.08 -0.03,0.03 -0.08,0.07 -0.15,0.1 -0.07,0.03 -0.11,0.05 -0.12,0.05l-3.21 0 0 -11.04c0,-0.03 0.03,-0.09 0.1,-0.17 0.07,-0.08 0.12,-0.12 0.17,-0.14 0.06,-0.03 0.18,-0.07 0.35,-0.11 0.17,-0.04 0.29,-0.06 0.35,-0.06z"/>
  <path class="fil1" d="M46.31 63.78l1.83 0 0 -5.06 -1.83 0 0 5.06zm3.77 -9.79c0.03,0.05 0.09,0.11 0.19,0.19 0.1,0.08 0.17,0.11 0.21,0.11 0.06,0 0.16,-0.04 0.3,-0.11 0.14,-0.08 0.23,-0.14 0.26,-0.19l2.94 0 0 15.69c-0.03,0 -0.1,-0.01 -0.21,-0.03 -0.11,-0.02 -0.18,-0.03 -0.21,-0.05 -0.03,0 -0.12,-0.05 -0.27,-0.15 -0.15,-0.1 -0.24,-0.15 -0.27,-0.15 -0.05,0 -0.14,-0.01 -0.27,-0.03 -0.14,-0.02 -0.28,-0.03 -0.44,-0.05 -0.16,-0.02 -0.32,-0.03 -0.47,-0.05 -0.16,-0.02 -0.27,-0.03 -0.35,-0.03 -0.02,0 -0.06,0 -0.15,0 -0.08,0 -0.17,-0 -0.27,-0.01 -0.1,-0.01 -0.2,-0.01 -0.29,-0.01 -0.1,0 -0.18,0 -0.24,0 -0.06,0 -0.14,0 -0.24,0 -0.1,0 -0.19,0 -0.28,0.01 -0.09,0.01 -0.17,0.01 -0.24,0.01 -0.07,0 -0.11,0 -0.12,0 -0.02,0 -0.08,0.02 -0.18,0.05 -0.11,0.03 -0.18,0.07 -0.23,0.1 -0.05,0.03 -0.14,0.09 -0.29,0.15 -0.15,0.07 -0.24,0.12 -0.27,0.15l-0.14 0.15c-0.02,0.03 -0.02,0.06 -0.02,0.08l0 0.1c0,0.02 0,0.04 0.01,0.08 0.01,0.03 0.01,0.06 0.01,0.08 0.02,-0.03 0.04,-0.07 0.07,-0.1 0.03,-0.03 0.05,-0.05 0.07,-0.05 0.03,-0.03 0.08,-0.07 0.15,-0.1 0.07,-0.03 0.12,-0.06 0.15,-0.08 0.05,-0.03 0.14,-0.07 0.28,-0.1 0.14,-0.03 0.23,-0.05 0.26,-0.05l0.84 0 0.84 0c0.02,0 0.06,0 0.14,0.01 0.08,0.01 0.16,0.02 0.25,0.04 0.09,0.02 0.18,0.03 0.26,0.05 0.08,0.02 0.15,0.03 0.19,0.05 0.03,0.02 0.1,0.04 0.21,0.08 0.11,0.03 0.18,0.07 0.21,0.1 0.03,0.02 0.1,0.07 0.21,0.15 0.11,0.09 0.18,0.14 0.19,0.15 0.03,0.02 0.12,0.04 0.28,0.08 0.16,0.03 0.25,0.06 0.28,0.08 0.03,0.03 0.08,0.06 0.15,0.09 0.07,0.03 0.13,0.06 0.19,0.09 0.06,0.05 0.14,0.09 0.23,0.13l0 3.32 -5.78 0 0 -5.37 -1.97 0 0 5.42c-0.06,0 -0.16,0 -0.29,0 -0.14,0 -0.28,-0 -0.44,-0.01 -0.16,-0.01 -0.3,-0.02 -0.44,-0.03 -0.14,-0.01 -0.23,-0.01 -0.29,-0.01 -0.08,-0.02 -0.22,-0.04 -0.43,-0.08 -0.21,-0.03 -0.35,-0.06 -0.41,-0.08 -0.03,-0.02 -0.12,-0.08 -0.27,-0.18 -0.15,-0.1 -0.24,-0.15 -0.27,-0.15 -0.08,0.02 -0.18,0.09 -0.32,0.2 -0.14,0.12 -0.22,0.21 -0.25,0.28l-2.37 0 0 -20.03 9.62 0z"/>
  <path class="fil1" d="M60.54 62.5c0.02,0 0.02,-0.03 0.02,-0.08l0 -0.03c0,-0.02 -0.01,-0.03 -0.02,-0.05 -0.02,0 -0.08,-0.02 -0.18,-0.06 -0.11,-0.04 -0.18,-0.07 -0.23,-0.09 -0.06,-0.02 -0.17,-0.05 -0.33,-0.09 -0.16,-0.04 -0.26,-0.06 -0.3,-0.06l0 -2.76 -3.84 0 0 -5.29 13.53 0 0 5.21 -1.4 0c-0.02,0 -0.04,-0.06 -0.08,-0.18 -0.04,-0.12 -0.06,-0.22 -0.06,-0.31 0,-0.02 0,-0.06 0,-0.14 0,-0.08 0,-0.16 0,-0.26 0,-0.09 0,-0.18 0,-0.26 0,-0.08 0,-0.12 0,-0.14l-0.07 -0.08c-0.05,-0.02 -0.07,-0.04 -0.07,-0.08 -0.02,-0.02 -0.04,-0.07 -0.07,-0.15 -0.03,-0.09 -0.05,-0.14 -0.07,-0.15 -0.03,-0.02 -0.08,-0.04 -0.16,-0.08 -0.08,-0.03 -0.12,-0.06 -0.14,-0.08 -0.02,-0.03 -0.04,-0.09 -0.07,-0.17 -0.03,-0.08 -0.05,-0.13 -0.07,-0.17 -0.02,0 -0.04,-0.02 -0.08,-0.06 -0.04,-0.04 -0.06,-0.07 -0.06,-0.09 -0.02,-0.03 -0.06,-0.11 -0.14,-0.24 -0.08,-0.13 -0.13,-0.2 -0.16,-0.22 -0.03,-0.05 -0.07,-0.11 -0.11,-0.18 -0.05,-0.07 -0.09,-0.14 -0.14,-0.2 -0.06,-0.07 -0.11,-0.15 -0.16,-0.26l-0.14 0c0,0.05 0.02,0.16 0.06,0.32 0.04,0.16 0.06,0.27 0.08,0.32 0.02,0 0.04,0.02 0.08,0.06 0.04,0.04 0.06,0.07 0.06,0.09 0.02,0.02 0.04,0.07 0.08,0.15 0.04,0.09 0.06,0.14 0.06,0.15l0.14 0.15c0.02,0.03 0.02,0.11 0.01,0.24 -0.01,0.13 -0.01,0.21 -0.01,0.24 0.03,0.03 0.1,0.11 0.21,0.24 0.11,0.13 0.18,0.2 0.21,0.22 0.03,0.03 0.06,0.09 0.09,0.17 0.03,0.08 0.05,0.13 0.05,0.17 0.02,0.09 0.03,0.26 0.05,0.51 0.02,0.26 0.02,0.43 0.02,0.51l-1.81 0 0 14.74 -1.17 0c-0.02,-0.09 -0.04,-0.24 -0.07,-0.47 -0.03,-0.23 -0.06,-0.39 -0.09,-0.47 0,-0.03 -0.02,-0.13 -0.06,-0.29 -0.04,-0.16 -0.06,-0.28 -0.08,-0.34 -0.02,-0.07 -0.04,-0.16 -0.07,-0.28 -0.03,-0.12 -0.05,-0.18 -0.07,-0.18l-0.05 -0.03c-0.02,0 -0.03,0 -0.03,0.01 -0.01,0.01 -0.02,0.01 -0.03,0.01l-0.02 0c-0.02,0 -0.04,0.02 -0.08,0.06 -0.04,0.04 -0.06,0.07 -0.06,0.09 0,0.05 -0.01,0.14 -0.02,0.26 -0.02,0.12 -0.03,0.24 -0.05,0.37 -0.02,0.13 -0.03,0.25 -0.05,0.37 -0.02,0.12 -0.02,0.2 -0.02,0.26 0,0.03 -0.02,0.09 -0.06,0.17 -0.04,0.08 -0.07,0.13 -0.1,0.17 0,0.02 -0.02,0.04 -0.06,0.08 -0.04,0.03 -0.06,0.06 -0.08,0.08 -0.03,0.03 -0.08,0.07 -0.15,0.1 -0.07,0.03 -0.11,0.05 -0.12,0.05l-3.21 0 0 -11.04c0,-0.03 0.03,-0.09 0.1,-0.17 0.07,-0.08 0.12,-0.12 0.17,-0.14 0.06,-0.03 0.18,-0.07 0.35,-0.11 0.17,-0.04 0.29,-0.06 0.35,-0.06z"/>
  <path class="fil1" d="M18.17 68.74l0 -2.04 -8.22 0 0 -6.39c0,-0.02 0.02,-0.05 0.05,-0.09 0.03,-0.04 0.06,-0.06 0.09,-0.06 0.03,-0.02 0.11,-0.04 0.25,-0.08 0.14,-0.03 0.24,-0.06 0.32,-0.08 0.06,-0.03 0.2,-0.07 0.41,-0.1 0.21,-0.03 0.35,-0.06 0.43,-0.08 0.03,0 0.11,-0 0.23,-0.01 0.12,-0.01 0.25,-0.02 0.4,-0.04 0.14,-0.02 0.27,-0.03 0.4,-0.05 0.12,-0.02 0.2,-0.03 0.23,-0.05 0.03,0 0.08,-0.02 0.16,-0.06 0.08,-0.04 0.12,-0.07 0.14,-0.09 0.05,-0.02 0.16,-0.04 0.34,-0.08 0.18,-0.03 0.3,-0.06 0.36,-0.08l0 -0.15c0,0 -0.03,-0.01 -0.09,-0.03 -0.06,-0.02 -0.14,-0.03 -0.23,-0.05 -0.09,-0.02 -0.18,-0.03 -0.28,-0.05 -0.1,-0.02 -0.18,-0.03 -0.24,-0.03 -0.09,0 -0.25,-0 -0.47,-0.01 -0.23,-0.01 -0.46,-0.01 -0.71,-0.01 -0.25,0 -0.49,0 -0.71,0.01 -0.23,0.01 -0.38,0.01 -0.47,0.01 -0.03,-0.02 -0.08,-0.04 -0.15,-0.08 -0.07,-0.03 -0.12,-0.07 -0.15,-0.1 -0.02,0 -0.04,-0.02 -0.07,-0.06 -0.03,-0.04 -0.05,-0.07 -0.07,-0.09 -0.03,-0.03 -0.06,-0.09 -0.09,-0.17 -0.03,-0.08 -0.05,-0.12 -0.05,-0.14l0 -4.42 13.94 0 0 5.29 -8.22 0 0 2.04 3.77 0c0,0.03 0.02,0.1 0.06,0.2 0.04,0.1 0.06,0.17 0.08,0.2 0.02,0 0.04,0.02 0.08,0.06 0.04,0.04 0.06,0.07 0.06,0.09 0.02,0.05 0.04,0.14 0.07,0.26 0.03,0.12 0.06,0.24 0.09,0.37 0.03,0.13 0.06,0.25 0.08,0.37 0.02,0.12 0.03,0.2 0.03,0.26 0.02,-0.05 0.04,-0.14 0.08,-0.26 0.04,-0.12 0.08,-0.25 0.12,-0.38 0.05,-0.14 0.09,-0.26 0.12,-0.38 0.04,-0.12 0.07,-0.2 0.1,-0.23 0.03,-0.09 0.1,-0.19 0.2,-0.31 0.11,-0.12 0.17,-0.18 0.2,-0.18l3.07 0 0 12.62 -2.91 0c-0.02,0 -0.04,-0.02 -0.07,-0.05 -0.03,-0.03 -0.06,-0.07 -0.09,-0.1 -0.02,-0.03 -0.04,-0.09 -0.07,-0.17 -0.03,-0.08 -0.05,-0.13 -0.07,-0.17 0,-0.02 -0.02,-0.14 -0.06,-0.38 -0.04,-0.24 -0.06,-0.43 -0.08,-0.56 0,-0.03 -0.01,-0.1 -0.02,-0.2 -0.02,-0.1 -0.03,-0.21 -0.05,-0.33 -0.02,-0.12 -0.03,-0.23 -0.05,-0.33 -0.02,-0.1 -0.02,-0.18 -0.02,-0.23 -0.02,0.02 -0.04,0.04 -0.08,0.08 -0.04,0.03 -0.06,0.06 -0.06,0.08 -0.02,0.03 -0.04,0.14 -0.08,0.31 -0.04,0.17 -0.06,0.28 -0.06,0.33 -0.02,0.07 -0.03,0.18 -0.05,0.34 -0.02,0.16 -0.03,0.34 -0.05,0.52 -0.02,0.19 -0.03,0.36 -0.05,0.52 -0.02,0.16 -0.02,0.28 -0.02,0.34l-5.42 0c-0.02,0 -0.08,-0.04 -0.18,-0.13 -0.11,-0.09 -0.19,-0.14 -0.25,-0.18 0,-0.02 -0.02,-0.04 -0.06,-0.08 -0.04,-0.03 -0.06,-0.07 -0.08,-0.1 -0.05,-0.07 -0.12,-0.18 -0.23,-0.33 -0.11,-0.15 -0.17,-0.25 -0.2,-0.28 -0.03,-0.05 -0.06,-0.13 -0.1,-0.23 -0.04,-0.1 -0.08,-0.2 -0.12,-0.31 -0.05,-0.1 -0.09,-0.19 -0.12,-0.27 -0.04,-0.08 -0.06,-0.12 -0.06,-0.14 -0.02,-0.09 -0.03,-0.23 -0.05,-0.45 -0.02,-0.21 -0.03,-0.43 -0.05,-0.66 -0.02,-0.23 -0.03,-0.45 -0.03,-0.66 -0.01,-0.21 -0.01,-0.36 -0.01,-0.45 -0.02,0.07 -0.04,0.19 -0.07,0.37 -0.03,0.18 -0.06,0.37 -0.09,0.57 -0.03,0.2 -0.06,0.4 -0.08,0.57 -0.02,0.18 -0.04,0.3 -0.06,0.37l0 1.89 -0.15 0.18 -2.63 -1.64 0 -3.34 8.22 0z"/>
  <path class="fil2" d="M79.13 26.27l0.01 39.21c0,0.42 -0.2,0.78 -0.56,1.01l-6.03 3.76c-0.38,0.23 -0.82,0.25 -1.2,0.03 -0.39,-0.22 -0.61,-0.6 -0.61,-1.04l-0 -41.28 -31.16 -19.4 -31.18 19.41 0.01 41.26c0,0.44 -0.22,0.82 -0.61,1.04 -0.39,0.22 -0.83,0.2 -1.2,-0.03l-6.03 -3.75c-0.36,-0.22 -0.56,-0.59 -0.56,-1.01l0.01 -39.07c-0.04,-1.73 0.34,-2.63 1.71,-3.51l33.82 -21.84c1.25,-0.78 2.78,-1.11 4.24,-1.05 1.4,0.05 2.84,0.45 4.03,1.2l33.66 21.8c1.27,0.82 1.61,1.69 1.65,3.27z"/>
  <polygon class="fil1" points="50.4,47.95 50.4,52.37 29.27,52.37 29.27,45.92 33.49,45.92 33.49,47.95 37.72,47.95 37.72,49.98 41.94,49.98 41.94,47.95 41.94,45.92 46.17,45.92 46.17,47.95 "/>
  <polygon class="fil3" points="29.27,43.89 33.49,43.89 37.72,43.89 41.94,43.89 46.17,43.89 50.4,43.89 50.4,45.92 50.4,47.95 46.17,47.95 46.17,45.92 41.94,45.92 41.94,47.95 41.94,49.98 37.72,49.98 37.72,47.95 33.49,47.95 33.49,45.92 29.27,45.92 "/>
 </g>
</svg>
